<?xml version="1.0" encoding="UTF-8"?>
<svg xmlns="http://www.w3.org/2000/svg"
     xmlns:xlink="http://www.w3.org/1999/xlink"
     xmlns:gadfly="http://www.gadflyjl.org/ns"
     version="1.2"
     width="141.42mm" height="100mm" viewBox="0 0 141.42 100"
     stroke="none"
     fill="#000000"
     stroke-width="0.3"
     font-size="3.88"
>
<defs>
  <marker id="arrow" markerWidth="15" markerHeight="7" refX="5" refY="3.5" orient="auto" markerUnits="strokeWidth">
    <path d="M0,0 L15,3.5 L0,7 z" stroke="context-stroke" fill="context-stroke"/>
  </marker>
</defs>
<g class="plotroot xscalable yscalable" id="img-c2bd3d9b-1">
  <g font-size="3.88" font-family="'PT Sans','Helvetica Neue','Helvetica',sans-serif" fill="#564A55" stroke="#000000" stroke-opacity="0.000" id="img-c2bd3d9b-2">
    <g transform="translate(83.6,88.39)">
      <g class="primitive">
        <text text-anchor="middle" dy="0.6em">Sim. Values</text>
      </g>
    </g>
  </g>
  <g class="guide xlabels" font-size="2.82" font-family="'PT Sans Caption','Helvetica Neue','Helvetica',sans-serif" fill="#6C606B" id="img-c2bd3d9b-3">
    <g transform="translate(32.77,81.72)">
      <g class="primitive">
        <text text-anchor="middle" dy="0.6em">-1×10⁶</text>
      </g>
    </g>
    <g transform="translate(58.18,81.72)">
      <g class="primitive">
        <text text-anchor="middle" dy="0.6em">0</text>
      </g>
    </g>
    <g transform="translate(83.6,81.72)">
      <g class="primitive">
        <text text-anchor="middle" dy="0.6em">1×10⁶</text>
      </g>
    </g>
    <g transform="translate(109.01,81.72)">
      <g class="primitive">
        <text text-anchor="middle" dy="0.6em">2×10⁶</text>
      </g>
    </g>
    <g transform="translate(134.42,81.72)">
      <g class="primitive">
        <text text-anchor="middle" dy="0.6em">3×10⁶</text>
      </g>
    </g>
  </g>
  <g clip-path="url(#img-c2bd3d9b-4)">
    <g id="img-c2bd3d9b-5">
      <g pointer-events="visible" fill="#000000" fill-opacity="0.000" stroke="#000000" stroke-opacity="0.000" class="guide background" id="img-c2bd3d9b-6">
        <g transform="translate(83.6,42.86)" id="img-c2bd3d9b-7">
          <path d="M-52.82,-37.86 L 52.82 -37.86 52.82 37.86 -52.82 37.86 z" class="primitive"/>
        </g>
      </g>
      <g class="guide ygridlines xfixed" stroke-dasharray="0.5,0.5" stroke-width="0.2" stroke="#D0D0E0" id="img-c2bd3d9b-8">
        <g transform="translate(83.6,78.72)" id="img-c2bd3d9b-9">
          <path fill="none" d="M-52.82,0 L 52.82 0" class="primitive"/>
        </g>
        <g transform="translate(83.6,60.79)" id="img-c2bd3d9b-10">
          <path fill="none" d="M-52.82,0 L 52.82 0" class="primitive"/>
        </g>
        <g transform="translate(83.6,42.86)" id="img-c2bd3d9b-11">
          <path fill="none" d="M-52.82,0 L 52.82 0" class="primitive"/>
        </g>
        <g transform="translate(83.6,24.93)" id="img-c2bd3d9b-12">
          <path fill="none" d="M-52.82,0 L 52.82 0" class="primitive"/>
        </g>
        <g transform="translate(83.6,7)" id="img-c2bd3d9b-13">
          <path fill="none" d="M-52.82,0 L 52.82 0" class="primitive"/>
        </g>
      </g>
      <g class="guide xgridlines yfixed" stroke-dasharray="0.5,0.5" stroke-width="0.2" stroke="#D0D0E0" id="img-c2bd3d9b-14">
        <g transform="translate(32.77,42.86)" id="img-c2bd3d9b-15">
          <path fill="none" d="M0,-37.86 L 0 37.86" class="primitive"/>
        </g>
        <g transform="translate(58.18,42.86)" id="img-c2bd3d9b-16">
          <path fill="none" d="M0,-37.86 L 0 37.86" class="primitive"/>
        </g>
        <g transform="translate(83.6,42.86)" id="img-c2bd3d9b-17">
          <path fill="none" d="M0,-37.86 L 0 37.86" class="primitive"/>
        </g>
        <g transform="translate(109.01,42.86)" id="img-c2bd3d9b-18">
          <path fill="none" d="M0,-37.86 L 0 37.86" class="primitive"/>
        </g>
        <g transform="translate(134.42,42.86)" id="img-c2bd3d9b-19">
          <path fill="none" d="M0,-37.86 L 0 37.86" class="primitive"/>
        </g>
      </g>
      <g class="plotpanel" id="img-c2bd3d9b-20">
        <metadata>
          <boundingbox value="30.771666666666675mm 5.0mm 105.64968957064283mm 75.715mm"/>
          <unitbox value="-1.0787016668107018e6 1.0278881684445373e-6 4.1574033336214037e6 -1.0557763368890748e-6"/>
        </metadata>
        <g stroke-width="0.3" fill="#000000" fill-opacity="0.000" class="geometry" id="img-c2bd3d9b-21">
          <g class="color_LCHab{Float32}(70.0f0,60.0f0,240.0f0)" stroke-dasharray="none" stroke="#00BFFF" id="img-c2bd3d9b-22">
            <g transform="translate(84.28,57.52)" id="img-c2bd3d9b-23">
              <path fill="none" d="M-42.83,21.19 L -42.5 21.19 -42.16 21.19 -41.82 21.19 -41.49 21.19 -41.15 21.19 -40.82 21.19 -40.48 21.19 -40.14 21.19 -39.81 21.19 -39.47 21.18 -39.14 21.18 -38.8 21.17 -38.47 21.17 -38.13 21.16 -37.79 21.15 -37.46 21.13 -37.12 21.11 -36.79 21.09 -36.45 21.06 -36.11 21.02 -35.78 20.98 -35.44 20.93 -35.11 20.87 -34.77 20.8 -34.43 20.72 -34.1 20.63 -33.76 20.53 -33.43 20.42 -33.09 20.3 -32.75 20.17 -32.42 20.03 -32.08 19.88 -31.75 19.71 -31.41 19.54 -31.07 19.36 -30.74 19.18 -30.4 18.98 -30.07 18.78 -29.73 18.57 -29.39 18.35 -29.06 18.13 -28.72 17.9 -28.39 17.66 -28.05 17.42 -27.72 17.17 -27.38 16.91 -27.04 16.63 -26.71 16.35 -26.37 16.06 -26.04 15.74 -25.7 15.41 -25.36 15.06 -25.03 14.68 -24.69 14.27 -24.36 13.84 -24.02 13.37 -23.68 12.88 -23.35 12.35 -23.01 11.79 -22.68 11.21 -22.34 10.59 -22 9.96 -21.67 9.3 -21.33 8.63 -21 7.95 -20.66 7.25 -20.32 6.55 -19.99 5.85 -19.65 5.13 -19.32 4.42 -18.98 3.69 -18.64 2.96 -18.31 2.22 -17.97 1.47 -17.64 0.7 -17.3 -0.09 -16.96 -0.9 -16.63 -1.75 -16.29 -2.63 -15.96 -3.55 -15.62 -4.51 -15.29 -5.52 -14.95 -6.59 -14.61 -7.71 -14.28 -8.88 -13.94 -10.11 -13.61 -11.4 -13.27 -12.74 -12.93 -14.14 -12.6 -15.58 -12.26 -17.06 -11.93 -18.56 -11.59 -20.09 -11.25 -21.63 -10.92 -23.17 -10.58 -24.68 -10.25 -26.16 -9.91 -27.58 -9.57 -28.94 -9.24 -30.22 -8.9 -31.4 -8.57 -32.47 -8.23 -33.41 -7.89 -34.24 -7.56 -34.93 -7.22 -35.49 -6.89 -35.91 -6.55 -36.22 -6.21 -36.4 -5.88 -36.47 -5.54 -36.44 -5.21 -36.33 -4.87 -36.14 -4.54 -35.89 -4.2 -35.59 -3.86 -35.27 -3.53 -34.92 -3.19 -34.58 -2.86 -34.24 -2.52 -33.93 -2.18 -33.65 -1.85 -33.41 -1.51 -33.23 -1.18 -33.1 -0.84 -33.03 -0.5 -33 -0.17 -33.03 0.17 -33.09 0.5 -33.19 0.84 -33.29 1.18 -33.4 1.51 -33.5 1.85 -33.57 2.18 -33.6 2.52 -33.58 2.86 -33.51 3.19 -33.36 3.53 -33.15 3.86 -32.87 4.2 -32.52 4.54 -32.1 4.87 -31.62 5.21 -31.07 5.54 -30.47 5.88 -29.81 6.21 -29.11 6.55 -28.37 6.89 -27.59 7.22 -26.77 7.56 -25.92 7.89 -25.06 8.23 -24.17 8.57 -23.27 8.9 -22.37 9.24 -21.47 9.57 -20.59 9.91 -19.73 10.25 -18.89 10.58 -18.08 10.92 -17.3 11.25 -16.55 11.59 -15.84 11.93 -15.15 12.26 -14.48 12.6 -13.82 12.93 -13.17 13.27 -12.51 13.61 -11.83 13.94 -11.13 14.28 -10.4 14.61 -9.63 14.95 -8.83 15.29 -7.99 15.62 -7.11 15.96 -6.21 16.29 -5.28 16.63 -4.33 16.96 -3.38 17.3 -2.42 17.64 -1.48 17.97 -0.55 18.31 0.37 18.64 1.25 18.98 2.1 19.32 2.93 19.65 3.72 19.99 4.48 20.32 5.21 20.66 5.91 21 6.58 21.33 7.23 21.67 7.85 22 8.45 22.34 9.02 22.68 9.58 23.01 10.11 23.35 10.62 23.68 11.1 24.02 11.57 24.36 12.02 24.69 12.44 25.03 12.85 25.36 13.25 25.7 13.63 26.04 14 26.37 14.36 26.71 14.71 27.04 15.06 27.38 15.4 27.72 15.74 28.05 16.07 28.39 16.4 28.72 16.72 29.06 17.03 29.39 17.34 29.73 17.63 30.07 17.92 30.4 18.19 30.74 18.46 31.07 18.71 31.41 18.94 31.75 19.17 32.08 19.38 32.42 19.57 32.75 19.76 33.09 19.93 33.43 20.09 33.76 20.24 34.1 20.37 34.43 20.5 34.77 20.61 35.11 20.7 35.44 20.79 35.78 20.86 36.11 20.93 36.45 20.98 36.79 21.03 37.12 21.06 37.46 21.09 37.79 21.12 38.13 21.14 38.47 21.15 38.8 21.16 39.14 21.17 39.47 21.18 39.81 21.18 40.14 21.18 40.48 21.19 40.82 21.19 41.15 21.19 41.49 21.19 41.82 21.19 42.16 21.19 42.5 21.19 42.83 21.19" class="primitive"/>
            </g>
          </g>
        </g>
      </g>
    </g>
  </g>
  <g class="guide ylabels" font-size="2.82" font-family="'PT Sans Caption','Helvetica Neue','Helvetica',sans-serif" fill="#6C606B" id="img-c2bd3d9b-24">
    <g transform="translate(29.77,78.72)" id="img-c2bd3d9b-25">
      <g class="primitive">
        <text text-anchor="end" dy="0.35em">0</text>
      </g>
    </g>
    <g transform="translate(29.77,60.79)" id="img-c2bd3d9b-26">
      <g class="primitive">
        <text text-anchor="end" dy="0.35em">2.50×10⁻⁷</text>
      </g>
    </g>
    <g transform="translate(29.77,42.86)" id="img-c2bd3d9b-27">
      <g class="primitive">
        <text text-anchor="end" dy="0.35em">5.00×10⁻⁷</text>
      </g>
    </g>
    <g transform="translate(29.77,24.93)" id="img-c2bd3d9b-28">
      <g class="primitive">
        <text text-anchor="end" dy="0.35em">7.50×10⁻⁷</text>
      </g>
    </g>
    <g transform="translate(29.77,7)" id="img-c2bd3d9b-29">
      <g class="primitive">
        <text text-anchor="end" dy="0.35em">1.00×10⁻⁶</text>
      </g>
    </g>
  </g>
  <g font-size="3.88" font-family="'PT Sans','Helvetica Neue','Helvetica',sans-serif" fill="#564A55" stroke="#000000" stroke-opacity="0.000" id="img-c2bd3d9b-30">
    <g transform="translate(8.81,40.86)" id="img-c2bd3d9b-31">
      <g class="primitive">
        <text text-anchor="middle" dy="0.35em" transform="rotate(-90,0, 2)">Frequency</text>
      </g>
    </g>
  </g>
</g>
<defs>
  <clipPath id="img-c2bd3d9b-4">
    <path d="M30.77,5 L 136.42 5 136.42 80.72 30.77 80.72" />
  </clipPath>
</defs>
</svg>
